<svg version="1" xmlns="http://www.w3.org/2000/svg" width="682.667" height="682.667" viewBox="0 0 512.000000 512.000000"><path d="M197.7 5.6c-.3.2-110.1 1.6-142.7 1.8-26.1.1-27.8.3-33.2 2.4C9.4 14.8 5.5 23 5.7 43.9c.1 6.9.4 13.9.8 15.6.3 1.6.8 13.1 1.1 25.5.3 19.7.5 235.8.2 287.5-.2 31 2 43.6 11.8 67.4 10 24.1 22.5 41.9 36.1 51.2 12.2 8.4 23.4 11.5 45.8 12.6 15.3.8 103.5.9 193 .2 27.5-.2 54.3-.1 59.5.3 41.9 3.3 73.4 2.7 94-1.8 35.2-7.7 54.5-28.1 57.7-60.9.8-7.5.8-8.2-.2-84-.3-27.5-.8-61.9-.9-76.5-.4-28.6-.7-30.4-5.7-33.4-3.3-1.9-6.5-2-99.9-1.1l-42.6.5.3-72.3c.2-67.2.6-92 1.8-100.7 1.9-15.3 2.6-39.7 1.3-47.5-1.7-9.9-6.6-16.3-14.8-19-5.2-1.7-5.2-1.7-57-1.7-19 0-47-.1-62.3-.1-15.3-.1-27.9-.1-28-.1zM301 26.4c20.9 2.9 31.8 9.5 35.5 21.8 1.2 4.2 1.3 24.2.1 32.8-1.2 8.5-1.6 23.5-2.2 83.5-.3 35.2-.7 71.4-.9 80.5-.5 20.8-.5 119.8 0 134.5 1.5 50.3 10 77.7 30.4 98.2l4.3 4.3-8.4.1c-4.6.1-28.5 0-53.3-.1-68.4-.4-149.7-.4-171.5 0-29.6.4-41.3-1.5-57.5-9.4-26.5-13.1-42.5-44-46.1-89.1-.3-3.3-.7-64.7-.9-136.5-.2-71.8-.6-142.7-.9-157.5-.5-22.4-.3-28 1-32.9 2.5-9.5 7.8-16.6 16.3-22.1 8.7-5.4 8.8-5.4 96.5-6 44.6-.3 84.5-.8 88.6-1 4.1-.2 12.7-.7 19-1 6.3-.4 11.6-.7 11.7-.9.6-.5 33.2.1 38.3.8zm181.1 242.9c.9 10 1.3 140.6.5 147.7-3.6 31.4-13.1 47.3-33.6 56.7-5.6 2.6-14.1 5-20 5.7-13 1.7-16.2 1.7-17.9.2-.9-.8-5-2.7-9.1-4.1-10.6-3.8-18-8.6-24.9-16.1-11.7-12.8-18.1-30.7-20.8-58.2-.8-7.6-.8-20.4-.2-93.7l.4-38 20-.5c11-.3 39.2-.6 62.8-.7 33.1-.2 42.7 0 42.8 1z"/><path d="M223 80c-8 .3-15.3 1-16.3 1.5-.9.6-3.3 3.5-5.2 6.5-3.2 4.9-3.5 6.1-3.6 13-.1 4.1-.3 11.3-.5 16-.1 4.7-.4 19.3-.6 32.5-.3 22.5-.2 24.2 1.7 27.4 4.6 7.8 12.4 10.2 30.3 9.4 6.4-.3 22.3-.6 35.2-.7 15-.2 25.1-.8 28-1.6 6-1.6 11.5-7.4 12.6-13.2 1.1-6.3.6-64-.6-70.9-2.1-11.4-5.9-16.8-13.3-18.8-4.6-1.3-44.1-1.9-67.7-1.1zm53.9 22c5.7 1.5 6.3 3.6 6 20.5-.1 7.7-.2 19.8-.2 27l.1 13-17.2.2c-9.4 0-20.5.4-24.6.8-10.1.9-22.2 1.3-23.7.8-.9-.4-1-1-.3-2.4 1.3-2.3 2.6-27.4 2.9-54.6l.1-5.3 18.3-.2c10-.2 21.9-.4 26.3-.6 4.5-.2 10.1.2 12.3.8zM82.1 94.3c-5.9 1.5-8.8 9.5-5.7 15.6 3 5.7 2.1 5.6 38.5 5.7 36.8.1 38.8-.1 41.5-5.5 2.9-5.5 1.2-12.6-3.7-15.3-2.6-1.4-65.2-1.9-70.6-.5zM95 149c-4.1.3-8.5 1.1-9.7 1.8-3 1.7-5.3 6.3-5.3 10.7 0 5.5 5.6 10.5 10.5 9.5.5-.1 7.8-.2 16.1-.2 13.5 0 17.8.3 31.9 1.7 7.1.7 10.8-1.9 11.9-8.7.5-3.3-2.7-10.1-5.7-11.7-2.2-1.1-3.9-1.4-14.7-2.7-7.5-.8-25.8-1-35-.4zM82.2 207.2c-6.1 1.6-8.9 9.6-5.7 15.8 2.6 5 5.4 5.7 25 6.4 9.9.4 22.3.9 27.5 1.1 5.2.2 17.2.7 26.5 1 9.4.3 20.6.8 25 1 4.4.2 15.9.6 25.5 1 9.6.3 22 .8 27.5 1 5.5.2 17.5.7 26.8 1l16.7.6 3-3c3.6-3.6 4.3-8.9 1.8-13.8-2.2-4.3-5-5.3-18-5.8-29.7-1.2-57.8-2.3-77.3-3-31.8-1.1-44.4-1.6-51.5-2-4.1-.2-16.7-.7-28-1.1-11.3-.3-20.7-.7-21-.9-.3-.1-2 .2-3.8.7zM84.7 282.5c-6.1 2-9 10.4-5.7 16.5 2.7 5.1 1.3 5 99.7 5 89.5 0 91.9-.1 95-2 1.9-1.1 3.5-3.1 3.9-4.7.3-1.5.7-3.4 1-4.1.7-2.2-2.3-8-5-9.8-2.5-1.5-9.7-1.7-94.3-1.8-58.7-.1-92.7.3-94.6.9zM115.6 351.7c-.1.1-6.7.3-14.7.4-17 .1-19.9 1-22.3 6.9-1.6 4.1-1.3 8.3.8 11.2 2.4 3.3 6.1 4.4 13.7 4.1 14.1-.5 115.5-.4 137.4.2 30.5.8 46.9 1.3 61.4 2 14 .7 17.3-.1 19.6-4.6 2.6-4.9 1.9-9.7-1.9-13.5-1.9-1.9-4.5-3.5-5.7-3.5-1.3-.1-5.5-.2-9.4-.4-3.8-.1-13.5-.5-21.5-.9-34.6-1.5-156.3-2.9-157.4-1.9z"/></svg>